<svg xmlns="http://www.w3.org/2000/svg" viewBox="0 0 128 128" role="img" aria-label="Bilingual Translator logo">
  <defs>
    <linearGradient id="bg" x1="20" y1="14" x2="108" y2="114" gradientUnits="userSpaceOnUse">
      <stop offset="0" stop-color="#22c55e"/>
      <stop offset="0.52" stop-color="#2563eb"/>
      <stop offset="1" stop-color="#7c3aed"/>
    </linearGradient>
    <linearGradient id="page" x1="34" y1="26" x2="94" y2="105" gradientUnits="userSpaceOnUse">
      <stop offset="0" stop-color="#ffffff"/>
      <stop offset="1" stop-color="#eaf1ff"/>
    </linearGradient>
    <filter id="shadow" x="-20%" y="-20%" width="140%" height="140%">
      <feDropShadow dx="0" dy="8" stdDeviation="7" flood-color="#0f172a" flood-opacity="0.24"/>
    </filter>
  </defs>

  <rect width="128" height="128" rx="28" fill="url(#bg)"/>
  <path d="M31 35c0-6.1 4.9-11 11-11h44l19 19v50c0 6.1-4.9 11-11 11H42c-6.1 0-11-4.9-11-11V35z" fill="url(#page)" filter="url(#shadow)"/>
  <path d="M86 24v17c0 2.8 2.2 5 5 5h14L86 24z" fill="#c7d2fe"/>

  <path d="M43 54h27" stroke="#1e3a8a" stroke-width="7" stroke-linecap="round"/>
  <path d="M43 72h42" stroke="#2563eb" stroke-width="7" stroke-linecap="round"/>
  <path d="M43 90h25" stroke="#16a34a" stroke-width="7" stroke-linecap="round"/>

  <circle cx="86" cy="86" r="20" fill="#111827"/>
  <path d="M75 82h22" stroke="#ffffff" stroke-width="4.6" stroke-linecap="round"/>
  <path d="M86 75v22" stroke="#ffffff" stroke-width="4.6" stroke-linecap="round"/>
  <path d="M78 91c4.3 4.4 12.6 4.4 16.8 0" stroke="#93c5fd" stroke-width="3.8" stroke-linecap="round" fill="none"/>
</svg>
